<?xml version="1.0" encoding="UTF-8" standalone="no"?>
<!DOCTYPE svg PUBLIC "-//W3C//DTD SVG 1.1//EN" "http://www.w3.org/Graphics/SVG/1.1/DTD/svg11.dtd">
<svg xmlns="http://www.w3.org/2000/svg" version="1.1" viewBox="0.00 0.00 500.00 500.00">
<path fill="#29b4ef" d="
  M 194.76 154.94
  C 197.81 140.63 209.31 131.89 223.21 129.70
  Q 248.77 125.67 275.58 129.58
  Q 294.06 132.28 301.91 146.38
  Q 305.65 153.11 307.13 165.44
  Q 309.62 186.14 307.06 206.64
  Q 305.44 219.61 301.68 226.08
  C 294.69 238.08 282.23 242.11 268.69 243.39
  Q 247.09 245.44 227.85 242.98
  C 210.96 240.83 197.72 232.76 194.28 214.77
  Q 188.48 184.38 194.76 154.94
  Z
  M 222.69 186.57
  A 0.87 0.87 0.0 0 1 222.69 185.38
  L 238.08 169.03
  A 0.87 0.87 0.0 0 0 238.03 167.79
  L 235.88 165.81
  A 0.87 0.87 0.0 0 0 234.66 165.85
  L 216.41 185.07
  A 0.87 0.87 0.0 0 0 216.41 186.27
  L 235.16 205.85
  A 0.87 0.87 0.0 0 0 236.54 205.70
  L 237.76 203.64
  A 0.87 0.87 0.0 0 0 237.65 202.60
  L 222.69 186.57
  Z
  M 262.07 202.78
  A 1.06 1.06 0.0 0 0 262.09 204.25
  L 263.87 206.05
  A 1.06 1.06 0.0 0 0 265.39 206.03
  L 283.78 186.68
  A 1.06 1.06 0.0 0 0 283.79 185.23
  L 265.76 165.97
  A 1.06 1.06 0.0 0 0 264.40 165.81
  L 262.00 167.38
  A 1.06 1.06 0.0 0 0 261.82 169.00
  L 277.19 185.13
  A 1.06 1.06 0.0 0 1 277.20 186.58
  L 262.07 202.78
  Z
  M 256.5870 168.7885
  A 2.32 2.32 0.0 0 0 254.8776 165.9880
  L 254.7998 165.9692
  A 2.32 2.32 0.0 0 0 251.9993 167.6786
  L 243.5530 202.5915
  A 2.32 2.32 0.0 0 0 245.2624 205.3920
  L 245.3402 205.4108
  A 2.32 2.32 0.0 0 0 248.1407 203.7014
  L 256.5870 168.7885
  Z"
/>
<path fill="#29b4ef" d="
  M 46.23 296.57
  L 46.22 319.87
  A 0.85 0.85 0.0 0 0 47.07 320.72
  L 74.98 320.72
  A 0.85 0.85 0.0 0 1 75.83 321.62
  L 75.65 324.82
  A 0.85 0.85 0.0 0 1 74.80 325.62
  L 47.06 325.63
  A 0.85 0.85 0.0 0 0 46.21 326.48
  L 46.24 354.18
  A 0.85 0.85 0.0 0 1 45.43 355.03
  L 42.67 355.16
  A 0.85 0.85 0.0 0 1 41.78 354.31
  L 41.56 291.97
  A 0.85 0.85 0.0 0 1 42.41 291.12
  L 84.80 291.13
  A 0.85 0.85 0.0 0 1 85.65 291.98
  L 85.65 294.93
  A 0.85 0.85 0.0 0 1 84.80 295.78
  L 47.08 295.72
  A 0.85 0.85 0.0 0 0 46.23 296.57
  Z"
/>
<path fill="#29b4ef" d="
  M 104.35 292.85
  Q 104.21 318.23 104.40 340.46
  C 104.45 346.34 105.57 350.74 112.25 350.72
  C 113.97 350.72 114.77 352.20 114.18 353.72
  A 1.27 1.24 -0.2 0 1 113.45 354.44
  C 105.72 357.34 99.93 349.95 99.79 342.76
  Q 99.38 321.18 99.51 293.48
  Q 99.51 291.59 101.40 291.35
  Q 101.84 291.29 102.50 291.21
  Q 104.36 290.98 104.35 292.85
  Z"
/>
<path fill="#29b4ef" d="
  M 334.01 316.14
  Q 331.74 316.14 329.40 316.30
  Q 326.34 316.52 326.34 313.25
  Q 326.34 312.59 326.98 312.40
  Q 330.15 311.50 333.74 311.91
  A 1.15 1.14 2.9 0 0 335.01 310.77
  L 334.95 298.21
  Q 334.95 296.11 337.04 296.23
  L 337.85 296.28
  Q 340.04 296.40 340.04 298.60
  L 340.01 310.52
  A 1.28 1.27 -89.8 0 0 341.27 311.80
  L 351.75 311.91
  Q 353.33 311.93 353.15 313.50
  L 353.04 314.46
  Q 352.83 316.23 351.05 316.23
  L 341.46 316.25
  A 1.43 1.42 89.8 0 0 340.04 317.69
  Q 340.11 329.09 340.09 339.90
  Q 340.08 349.96 352.67 350.35
  Q 354.38 350.40 354.87 352.05
  Q 355.00 352.46 354.96 352.88
  Q 354.75 355.29 352.33 355.31
  C 340.59 355.36 334.74 347.82 334.89 336.94
  Q 335.02 326.96 334.96 317.09
  Q 334.96 316.14 334.01 316.14
  Z"
/>
<path fill="#29b4ef" d="
  M 297.89 315.97
  C 302.83 310.95 308.32 308.36 315.37 310.03
  Q 317.10 310.44 317.02 312.21
  L 316.98 312.93
  Q 316.89 314.83 315.01 314.53
  C 307.60 313.33 300.58 316.41 297.81 323.00
  Q 296.58 325.93 296.74 330.13
  Q 297.19 342.03 296.52 353.75
  Q 296.42 355.36 294.82 355.16
  L 294.24 355.09
  Q 291.94 354.81 291.94 352.49
  L 291.87 312.50
  Q 291.87 310.91 293.36 310.37
  Q 294.20 310.07 294.29 310.04
  Q 295.86 309.47 296.14 311.08
  Q 296.51 313.24 296.87 315.63
  A 0.60 0.60 0.0 0 0 297.89 315.97
  Z"
/>
<path fill="#29b4ef" d="
  M 216.07 347.35
  Q 215.38 347.33 214.94 347.84
  C 206.67 357.45 193.25 358.49 183.53 350.50
  C 177.35 345.42 175.29 339.14 175.51 331.48
  C 176.29 303.62 219.54 301.39 221.04 331.30
  Q 221.59 342.08 221.04 351.27
  C 220.51 360.19 214.42 368.19 205.81 371.00
  Q 193.47 375.04 182.21 366.54
  C 180.32 365.11 177.60 362.74 179.26 359.99
  A 1.16 1.15 37.3 0 1 181.04 359.75
  C 187.01 365.37 192.70 368.41 201.42 367.53
  C 211.38 366.54 215.95 357.28 216.85 348.24
  A 0.81 0.80 -86.4 0 0 216.07 347.35
  Z
  M 195.7918 351.2102
  A 18.68 18.35 97.5 0 0 216.4230 335.0852
  A 18.68 18.35 97.5 0 0 200.6682 314.1698
  A 18.68 18.35 97.5 0 0 180.0370 330.2948
  A 18.68 18.35 97.5 0 0 195.7918 351.2102
  Z"
/>
<path fill="#29b4ef" d="
  M 241.05 334.25
  A 0.84 0.84 0.0 0 0 240.22 335.18
  C 241.18 344.33 247.36 350.73 256.53 350.85
  C 261.68 350.91 266.37 349.35 270.69 346.60
  Q 272.07 345.72 272.95 347.10
  L 273.19 347.48
  Q 274.17 349.02 272.69 350.08
  C 263.87 356.45 252.57 357.93 243.80 351.01
  C 236.57 345.29 234.19 335.62 236.00 326.67
  Q 238.36 315.04 249.02 311.01
  C 254.79 308.82 262.13 309.50 267.31 312.72
  Q 276.87 318.68 277.15 331.08
  C 277.21 333.77 274.63 334.35 272.48 334.32
  Q 256.74 334.11 241.05 334.25
  Z
  M 240.85 330.01
  L 271.99 329.95
  A 0.27 0.27 0.0 0 0 272.26 329.68
  L 272.26 329.51
  A 15.64 15.22 -0.1 0 0 256.60 314.32
  L 256.20 314.32
  A 15.64 15.22 -0.1 0 0 240.58 329.57
  L 240.58 329.74
  A 0.27 0.27 0.0 0 0 240.85 330.01
  Z"
/>
<path fill="#29b4ef" d="
  M 455.11 321.30
  C 448.62 314.20 438.55 311.71 430.85 317.88
  C 423.66 323.63 422.01 336.72 427.86 344.26
  C 434.85 353.27 445.84 352.56 454.74 346.71
  Q 455.96 345.91 456.91 347.00
  L 457.37 347.53
  Q 458.49 348.81 457.18 349.90
  Q 444.05 360.82 429.84 351.88
  C 414.19 342.04 416.87 316.63 434.74 310.85
  Q 447.38 306.76 457.57 317.55
  Q 459.08 319.14 457.69 320.83
  L 457.34 321.24
  Q 456.26 322.56 455.11 321.30
  Z"
/>
<path fill="#29b4ef" d="
  M 127.72 335.01
  C 127.20 339.66 130.73 344.66 134.46 347.57
  C 141.97 353.42 150.78 351.48 158.05 346.51
  Q 159.18 345.74 160.13 346.73
  L 160.68 347.30
  Q 161.72 348.38 160.57 349.34
  Q 152.25 356.31 143.34 355.57
  C 130.77 354.53 122.62 344.45 122.73 331.92
  C 122.81 324.46 126.46 316.66 133.04 312.70
  Q 140.11 308.45 149.66 310.71
  C 158.27 312.74 162.86 319.67 164.38 328.03
  C 165.21 332.64 161.61 333.86 158.00 333.92
  Q 141.86 334.20 128.51 334.30
  A 0.80 0.79 -86.8 0 0 127.72 335.01
  Z
  M 128.25 329.94
  L 159.53 330.00
  A 0.24 0.24 0.0 0 0 159.77 329.76
  L 159.77 329.61
  A 15.61 15.33 0.1 0 0 144.18 314.25
  L 143.64 314.25
  A 15.61 15.33 0.1 0 0 128.01 329.55
  L 128.01 329.70
  A 0.24 0.24 0.0 0 0 128.25 329.94
  Z"
/>
<path fill="#29b4ef" d="
  M 372.00 334.97
  A 1.07 1.06 -35.0 0 0 371.85 335.79
  Q 372.85 340.46 375.13 343.99
  C 380.24 351.87 390.61 352.63 398.46 348.75
  Q 400.49 347.75 402.47 346.59
  Q 403.78 345.82 404.61 347.08
  L 405.02 347.69
  Q 405.93 349.08 404.58 350.05
  Q 390.10 360.41 376.76 351.81
  C 370.91 348.04 367.38 341.67 366.87 334.76
  C 365.77 320.00 376.86 307.86 392.08 310.22
  C 402.51 311.84 405.76 318.47 408.91 327.75
  C 410.25 331.71 406.88 334.35 403.25 334.24
  Q 387.78 333.78 373.09 334.31
  Q 372.42 334.34 372.00 334.97
  Z
  M 372.59 330.04
  L 403.93 330.32
  A 0.30 0.30 0.0 0 0 404.23 330.02
  L 404.23 329.76
  A 15.77 15.38 0.5 0 0 388.60 314.24
  L 388.20 314.24
  A 15.77 15.38 0.5 0 0 372.30 329.48
  L 372.29 329.74
  A 0.30 0.30 0.0 0 0 372.59 330.04
  Z"
/>
</svg>
