<?xml version="1.0" encoding="UTF-8" standalone="no"?>
<!DOCTYPE svg PUBLIC "-//W3C//DTD SVG 1.1//EN" "http://www.w3.org/Graphics/SVG/1.1/DTD/svg11.dtd">
<svg xmlns="http://www.w3.org/2000/svg" version="1.1" viewBox="0.00 0.00 200.00 200.00">
<g stroke-width="2.00" fill="none" stroke-linecap="butt">
<path stroke="#8ed4f1" vector-effect="non-scaling-stroke" d="
  M 109.76 97.04
  C 115.97 96.17 120.91 92.75 122.18 86.29
  Q 124.38 75.09 122.42 63.59
  Q 120.65 53.21 109.58 51.73
  Q 100.70 50.54 91.06 51.62
  C 84.17 52.39 79.11 55.67 77.76 62.72
  Q 75.51 74.44 77.75 85.98
  C 79.23 93.64 84.92 96.50 92.00 97.28
  Q 100.95 98.27 109.76 97.04"
/>
<path stroke="#8ed4f1" vector-effect="non-scaling-stroke" d="
  M 18.85 128.29
  A 0.35 0.35 0.0 0 1 18.50 127.94
  L 18.50 118.62
  A 0.35 0.35 0.0 0 1 18.85 118.27
  L 33.91 118.30
  A 0.35 0.35 0.0 0 0 34.26 117.95
  L 34.26 116.81
  A 0.35 0.35 0.0 0 0 33.91 116.46
  L 17.02 116.48
  A 0.35 0.35 0.0 0 0 16.67 116.83
  L 16.71 141.69
  A 0.35 0.35 0.0 0 0 17.09 142.04
  L 18.18 141.96
  A 0.35 0.35 0.0 0 0 18.50 141.61
  L 18.50 130.60
  A 0.35 0.35 0.0 0 1 18.85 130.25
  L 29.91 130.26
  A 0.35 0.35 0.0 0 0 30.26 129.93
  L 30.34 128.63
  A 0.35 0.35 0.0 0 0 29.99 128.26
  L 18.85 128.29"
/>
<path stroke="#8ed4f1" vector-effect="non-scaling-stroke" d="
  M 39.94 137.24
  C 39.98 140.03 42.32 142.72 45.26 141.81
  A 0.71 0.71 0.0 0 0 45.74 140.97
  Q 45.59 140.30 44.91 140.30
  Q 41.78 140.26 41.77 137.00
  Q 41.74 127.36 41.75 117.20
  Q 41.75 116.48 41.03 116.50
  L 40.75 116.51
  Q 39.85 116.54 39.84 117.44
  Q 39.81 127.82 39.94 137.24"
/>
<path stroke="#8ed4f1" vector-effect="non-scaling-stroke" d="
  M 136.68 126.48
  L 140.31 126.50
  Q 141.13 126.51 141.17 125.69
  L 141.20 125.24
  Q 141.23 124.75 140.74 124.75
  L 136.60 124.73
  Q 135.97 124.73 135.97 124.10
  L 136.01 119.40
  A 0.87 0.87 0.0 0 0 135.15 118.52
  L 134.74 118.52
  Q 133.98 118.51 133.99 119.26
  L 134.06 124.25
  A 0.51 0.50 -86.1 0 1 133.49 124.76
  Q 132.21 124.61 130.90 124.93
  A 0.48 0.48 0.0 0 0 130.56 125.52
  L 130.68 125.90
  Q 130.87 126.55 131.55 126.52
  L 133.46 126.41
  Q 133.99 126.38 134.00 126.91
  Q 134.05 130.21 133.96 133.88
  C 133.84 138.67 135.65 142.11 140.90 142.10
  Q 141.84 142.10 141.95 141.17
  Q 141.99 140.81 141.77 140.47
  A 0.73 0.73 0.0 0 0 141.13 140.12
  Q 135.95 140.26 136.00 135.53
  Q 136.05 131.59 135.99 127.18
  Q 135.98 126.47 136.68 126.48"
/>
<path stroke="#8ed4f1" vector-effect="non-scaling-stroke" d="
  M 118.67 126.00
  L 118.44 124.35
  A 0.44 0.44 0.0 0 0 117.88 123.99
  L 117.47 124.10
  Q 116.76 124.30 116.76 125.05
  L 116.78 140.98
  A 1.03 1.02 -86.9 0 0 117.69 142.00
  L 118.07 142.05
  A 0.46 0.46 0.0 0 0 118.59 141.62
  Q 118.86 136.74 118.68 131.68
  C 118.53 127.45 122.09 125.14 126.05 125.83
  A 0.59 0.58 -80.6 0 0 126.73 125.33
  L 126.77 125.00
  Q 126.89 124.17 126.07 124.01
  Q 122.20 123.22 119.39 126.23
  Q 118.79 126.86 118.67 126.00"
/>
<path stroke="#8ed4f1" vector-effect="non-scaling-stroke" d="
  M 51.59 133.68
  L 63.22 133.53
  Q 66.61 133.49 65.52 130.28
  L 65.08 129.00
  A 7.23 7.22 -2.6 0 0 59.92 124.30
  C 47.84 121.43 45.07 139.16 55.84 141.96
  Q 60.13 143.07 64.21 139.74
  A 0.58 0.58 0.0 0 0 64.21 138.84
  L 63.89 138.58
  A 0.44 0.43 47.5 0 0 63.38 138.55
  Q 56.65 142.93 52.26 137.52
  Q 51.18 136.19 51.04 134.27
  Q 51.00 133.68 51.59 133.68"
/>
<path stroke="#8ed4f1" vector-effect="non-scaling-stroke" d="
  M 85.40 139.69
  Q 87.16 137.77 86.63 140.32
  Q 84.92 148.53 77.05 146.80
  Q 75.02 146.36 72.38 143.88
  A 0.41 0.41 0.0 0 0 71.71 144.04
  L 71.61 144.30
  Q 71.35 145.03 71.87 145.59
  C 77.62 151.81 88.04 148.87 88.46 139.93
  Q 88.65 135.96 88.36 132.09
  C 87.45 120.06 68.74 121.59 70.30 134.59
  C 71.16 141.77 80.56 144.97 85.40 139.69"
/>
<path stroke="#8ed4f1" vector-effect="non-scaling-stroke" d="
  M 96.66 133.62
  L 109.61 133.65
  A 1.23 1.23 0.0 0 0 110.84 132.40
  C 110.68 121.49 95.28 120.90 94.25 131.77
  C 93.40 140.64 102.05 145.26 109.14 139.96
  A 0.68 0.67 51.9 0 0 109.25 138.99
  L 108.98 138.66
  Q 108.73 138.35 108.40 138.58
  C 103.41 141.93 96.94 140.65 96.07 134.30
  Q 95.97 133.62 96.66 133.62"
/>
<path stroke="#8ed4f1" vector-effect="non-scaling-stroke" d="
  M 149.47 133.67
  Q 155.55 133.45 160.67 133.65
  Q 164.71 133.80 163.21 130.05
  L 162.71 128.82
  Q 160.98 124.51 156.36 124.04
  C 146.44 123.04 143.27 136.53 151.22 141.02
  Q 156.38 143.93 161.81 139.99
  A 0.70 0.70 0.0 0 0 161.93 138.97
  L 161.68 138.68
  A 0.46 0.45 -36.0 0 0 161.10 138.59
  Q 158.36 140.26 156.44 140.40
  Q 150.35 140.84 148.77 134.61
  Q 148.54 133.70 149.47 133.67"
/>
<path stroke="#8ed4f1" vector-effect="non-scaling-stroke" d="
  M 173.01 139.45
  C 167.16 135.95 169.42 124.87 177.09 125.79
  Q 179.87 126.13 182.12 128.56
  A 0.48 0.47 45.0 0 0 182.81 128.57
  L 183.04 128.32
  Q 183.63 127.70 183.05 127.08
  Q 179.29 123.04 174.64 124.15
  C 166.46 126.10 165.50 137.33 172.66 141.17
  Q 177.98 144.03 182.87 139.94
  A 0.63 0.63 0.0 0 0 182.94 139.03
  L 182.68 138.74
  A 0.51 0.50 -36.1 0 0 182.03 138.64
  Q 176.99 141.84 173.01 139.45"
/>
<path stroke="#8ed4f1" vector-effect="non-scaling-stroke" d="
  M 102.6246 67.5003
  A 0.91 0.91 0.0 0 0 101.9541 66.4018
  L 101.9152 66.3924
  A 0.91 0.91 0.0 0 0 100.8167 67.0629
  L 97.4354 81.0397
  A 0.91 0.91 0.0 0 0 98.1059 82.1382
  L 98.1448 82.1476
  A 0.91 0.91 0.0 0 0 99.2433 81.4771
  L 102.6246 67.5003"
/>
<path stroke="#8ed4f1" vector-effect="non-scaling-stroke" d="
  M 89.05 74.61
  A 0.32 0.32 0.0 0 1 89.05 74.17
  L 95.21 67.60
  A 0.32 0.32 0.0 0 0 95.20 67.15
  L 94.34 66.32
  A 0.32 0.32 0.0 0 0 93.89 66.33
  L 86.58 74.06
  A 0.32 0.32 0.0 0 0 86.58 74.50
  L 94.10 82.35
  A 0.32 0.32 0.0 0 0 94.61 82.28
  L 95.10 81.42
  A 0.32 0.32 0.0 0 0 95.05 81.05
  L 89.05 74.61"
/>
<path stroke="#8ed4f1" vector-effect="non-scaling-stroke" d="
  M 110.92 74.07
  A 0.40 0.40 0.0 0 1 110.92 74.62
  L 104.83 81.13
  A 0.40 0.40 0.0 0 0 104.84 81.68
  L 105.56 82.41
  A 0.40 0.40 0.0 0 0 106.13 82.40
  L 113.50 74.66
  A 0.40 0.40 0.0 0 0 113.50 74.11
  L 106.29 66.39
  A 0.40 0.40 0.0 0 0 105.78 66.33
  L 104.80 66.96
  A 0.40 0.40 0.0 0 0 104.72 67.57
  L 110.92 74.07"
/>
<path stroke="#8ed4f1" vector-effect="non-scaling-stroke" d="
  M 51.36 131.94
  L 63.74 132.00
  A 0.13 0.13 0.0 0 0 63.87 131.87
  L 63.87 131.78
  A 6.25 6.04 0.3 0 0 57.66 125.71
  L 57.52 125.71
  A 6.25 6.04 0.3 0 0 51.23 131.72
  L 51.23 131.81
  A 0.13 0.13 0.0 0 0 51.36 131.94"
/>
<path stroke="#8ed4f1" vector-effect="non-scaling-stroke" d="
  M 78.1359 140.4402
  A 7.46 7.33 98.9 0 0 86.5317 134.2040
  A 7.46 7.33 98.9 0 0 80.4441 125.6998
  A 7.46 7.33 98.9 0 0 72.0483 131.9360
  A 7.46 7.33 98.9 0 0 78.1359 140.4402"
/>
<path stroke="#8ed4f1" vector-effect="non-scaling-stroke" d="
  M 96.41 131.95
  L 108.75 131.99
  A 0.13 0.13 0.0 0 0 108.88 131.86
  L 108.88 131.76
  A 6.20 5.99 0.2 0 0 102.70 125.75
  L 102.50 125.75
  A 6.20 5.99 0.2 0 0 96.28 131.72
  L 96.28 131.82
  A 0.13 0.13 0.0 0 0 96.41 131.95"
/>
<path stroke="#8ed4f1" vector-effect="non-scaling-stroke" d="
  M 149.05 131.96
  L 161.49 132.00
  A 0.12 0.12 0.0 0 0 161.61 131.88
  L 161.61 131.80
  A 6.26 6.08 0.2 0 0 155.37 125.70
  L 155.21 125.70
  A 6.26 6.08 0.2 0 0 148.93 131.76
  L 148.93 131.84
  A 0.12 0.12 0.0 0 0 149.05 131.96"
/>
</g>
<path fill="#f3f3f3" d="
  M 0.00 0.00
  L 200.00 0.00
  L 200.00 200.00
  L 0.00 200.00
  L 0.00 0.00
  Z
  M 109.76 97.04
  C 115.97 96.17 120.91 92.75 122.18 86.29
  Q 124.38 75.09 122.42 63.59
  Q 120.65 53.21 109.58 51.73
  Q 100.70 50.54 91.06 51.62
  C 84.17 52.39 79.11 55.67 77.76 62.72
  Q 75.51 74.44 77.75 85.98
  C 79.23 93.64 84.92 96.50 92.00 97.28
  Q 100.95 98.27 109.76 97.04
  Z
  M 18.85 128.29
  A 0.35 0.35 0.0 0 1 18.50 127.94
  L 18.50 118.62
  A 0.35 0.35 0.0 0 1 18.85 118.27
  L 33.91 118.30
  A 0.35 0.35 0.0 0 0 34.26 117.95
  L 34.26 116.81
  A 0.35 0.35 0.0 0 0 33.91 116.46
  L 17.02 116.48
  A 0.35 0.35 0.0 0 0 16.67 116.83
  L 16.71 141.69
  A 0.35 0.35 0.0 0 0 17.09 142.04
  L 18.18 141.96
  A 0.35 0.35 0.0 0 0 18.50 141.61
  L 18.50 130.60
  A 0.35 0.35 0.0 0 1 18.85 130.25
  L 29.91 130.26
  A 0.35 0.35 0.0 0 0 30.26 129.93
  L 30.34 128.63
  A 0.35 0.35 0.0 0 0 29.99 128.26
  L 18.85 128.29
  Z
  M 39.94 137.24
  C 39.98 140.03 42.32 142.72 45.26 141.81
  A 0.71 0.71 0.0 0 0 45.74 140.97
  Q 45.59 140.30 44.91 140.30
  Q 41.78 140.26 41.77 137.00
  Q 41.74 127.36 41.75 117.20
  Q 41.75 116.48 41.03 116.50
  L 40.75 116.51
  Q 39.85 116.54 39.84 117.44
  Q 39.81 127.82 39.94 137.24
  Z
  M 136.68 126.48
  L 140.31 126.50
  Q 141.13 126.51 141.17 125.69
  L 141.20 125.24
  Q 141.23 124.75 140.74 124.75
  L 136.60 124.73
  Q 135.97 124.73 135.97 124.10
  L 136.01 119.40
  A 0.87 0.87 0.0 0 0 135.15 118.52
  L 134.74 118.52
  Q 133.98 118.51 133.99 119.26
  L 134.06 124.25
  A 0.51 0.50 -86.1 0 1 133.49 124.76
  Q 132.21 124.61 130.90 124.93
  A 0.48 0.48 0.0 0 0 130.56 125.52
  L 130.68 125.90
  Q 130.87 126.55 131.55 126.52
  L 133.46 126.41
  Q 133.99 126.38 134.00 126.91
  Q 134.05 130.21 133.96 133.88
  C 133.84 138.67 135.65 142.11 140.90 142.10
  Q 141.84 142.10 141.95 141.17
  Q 141.99 140.81 141.77 140.47
  A 0.73 0.73 0.0 0 0 141.13 140.12
  Q 135.95 140.26 136.00 135.53
  Q 136.05 131.59 135.99 127.18
  Q 135.98 126.47 136.68 126.48
  Z
  M 118.67 126.00
  L 118.44 124.35
  A 0.44 0.44 0.0 0 0 117.88 123.99
  L 117.47 124.10
  Q 116.76 124.30 116.76 125.05
  L 116.78 140.98
  A 1.03 1.02 -86.9 0 0 117.69 142.00
  L 118.07 142.05
  A 0.46 0.46 0.0 0 0 118.59 141.62
  Q 118.86 136.74 118.68 131.68
  C 118.53 127.45 122.09 125.14 126.05 125.83
  A 0.59 0.58 -80.6 0 0 126.73 125.33
  L 126.77 125.00
  Q 126.89 124.17 126.07 124.01
  Q 122.20 123.22 119.39 126.23
  Q 118.79 126.86 118.67 126.00
  Z
  M 51.59 133.68
  L 63.22 133.53
  Q 66.61 133.49 65.52 130.28
  L 65.08 129.00
  A 7.23 7.22 -2.6 0 0 59.92 124.30
  C 47.84 121.43 45.07 139.16 55.84 141.96
  Q 60.13 143.07 64.21 139.74
  A 0.58 0.58 0.0 0 0 64.21 138.84
  L 63.89 138.58
  A 0.44 0.43 47.5 0 0 63.38 138.55
  Q 56.65 142.93 52.26 137.52
  Q 51.18 136.19 51.04 134.27
  Q 51.00 133.68 51.59 133.68
  Z
  M 85.40 139.69
  Q 87.16 137.77 86.63 140.32
  Q 84.92 148.53 77.05 146.80
  Q 75.02 146.36 72.38 143.88
  A 0.41 0.41 0.0 0 0 71.71 144.04
  L 71.61 144.30
  Q 71.35 145.03 71.87 145.59
  C 77.62 151.81 88.04 148.87 88.46 139.93
  Q 88.65 135.96 88.36 132.09
  C 87.45 120.06 68.74 121.59 70.30 134.59
  C 71.16 141.77 80.56 144.97 85.40 139.69
  Z
  M 96.66 133.62
  L 109.61 133.65
  A 1.23 1.23 0.0 0 0 110.84 132.40
  C 110.68 121.49 95.28 120.90 94.25 131.77
  C 93.40 140.64 102.05 145.26 109.14 139.96
  A 0.68 0.67 51.9 0 0 109.25 138.99
  L 108.98 138.66
  Q 108.73 138.35 108.40 138.58
  C 103.41 141.93 96.94 140.65 96.07 134.30
  Q 95.97 133.62 96.66 133.62
  Z
  M 149.47 133.67
  Q 155.55 133.45 160.67 133.65
  Q 164.71 133.80 163.21 130.05
  L 162.71 128.82
  Q 160.98 124.51 156.36 124.04
  C 146.44 123.04 143.27 136.53 151.22 141.02
  Q 156.38 143.93 161.81 139.99
  A 0.70 0.70 0.0 0 0 161.93 138.97
  L 161.68 138.68
  A 0.46 0.45 -36.0 0 0 161.10 138.59
  Q 158.36 140.26 156.44 140.40
  Q 150.35 140.84 148.77 134.61
  Q 148.54 133.70 149.47 133.67
  Z
  M 173.01 139.45
  C 167.16 135.95 169.42 124.87 177.09 125.79
  Q 179.87 126.13 182.12 128.56
  A 0.48 0.47 45.0 0 0 182.81 128.57
  L 183.04 128.32
  Q 183.63 127.70 183.05 127.08
  Q 179.29 123.04 174.64 124.15
  C 166.46 126.10 165.50 137.33 172.66 141.17
  Q 177.98 144.03 182.87 139.94
  A 0.63 0.63 0.0 0 0 182.94 139.03
  L 182.68 138.74
  A 0.51 0.50 -36.1 0 0 182.03 138.64
  Q 176.99 141.84 173.01 139.45
  Z"
/>
<path fill="#29b4ef" d="
  M 122.18 86.29
  C 120.91 92.75 115.97 96.17 109.76 97.04
  Q 100.95 98.27 92.00 97.28
  C 84.92 96.50 79.23 93.64 77.75 85.98
  Q 75.51 74.44 77.76 62.72
  C 79.11 55.67 84.17 52.39 91.06 51.62
  Q 100.70 50.54 109.58 51.73
  Q 120.65 53.21 122.42 63.59
  Q 124.38 75.09 122.18 86.29
  Z
  M 102.6246 67.5003
  A 0.91 0.91 0.0 0 0 101.9541 66.4018
  L 101.9152 66.3924
  A 0.91 0.91 0.0 0 0 100.8167 67.0629
  L 97.4354 81.0397
  A 0.91 0.91 0.0 0 0 98.1059 82.1382
  L 98.1448 82.1476
  A 0.91 0.91 0.0 0 0 99.2433 81.4771
  L 102.6246 67.5003
  Z
  M 89.05 74.61
  A 0.32 0.32 0.0 0 1 89.05 74.17
  L 95.21 67.60
  A 0.32 0.32 0.0 0 0 95.20 67.15
  L 94.34 66.32
  A 0.32 0.32 0.0 0 0 93.89 66.33
  L 86.58 74.06
  A 0.32 0.32 0.0 0 0 86.58 74.50
  L 94.10 82.35
  A 0.32 0.32 0.0 0 0 94.61 82.28
  L 95.10 81.42
  A 0.32 0.32 0.0 0 0 95.05 81.05
  L 89.05 74.61
  Z
  M 110.92 74.07
  A 0.40 0.40 0.0 0 1 110.92 74.62
  L 104.83 81.13
  A 0.40 0.40 0.0 0 0 104.84 81.68
  L 105.56 82.41
  A 0.40 0.40 0.0 0 0 106.13 82.40
  L 113.50 74.66
  A 0.40 0.40 0.0 0 0 113.50 74.11
  L 106.29 66.39
  A 0.40 0.40 0.0 0 0 105.78 66.33
  L 104.80 66.96
  A 0.40 0.40 0.0 0 0 104.72 67.57
  L 110.92 74.07
  Z"
/>
<rect fill="#f3f3f3" x="-0.93" y="-8.10" transform="translate(100.03,74.27) rotate(13.6)" width="1.86" height="16.20" rx="0.91"/>
<path fill="#f3f3f3" d="
  M 89.05 74.61
  L 95.05 81.05
  A 0.32 0.32 0.0 0 1 95.10 81.42
  L 94.61 82.28
  A 0.32 0.32 0.0 0 1 94.10 82.35
  L 86.58 74.50
  A 0.32 0.32 0.0 0 1 86.58 74.06
  L 93.89 66.33
  A 0.32 0.32 0.0 0 1 94.34 66.32
  L 95.20 67.15
  A 0.32 0.32 0.0 0 1 95.21 67.60
  L 89.05 74.17
  A 0.32 0.32 0.0 0 0 89.05 74.61
  Z"
/>
<path fill="#f3f3f3" d="
  M 110.92 74.07
  L 104.72 67.57
  A 0.40 0.40 0.0 0 1 104.80 66.96
  L 105.78 66.33
  A 0.40 0.40 0.0 0 1 106.29 66.39
  L 113.50 74.11
  A 0.40 0.40 0.0 0 1 113.50 74.66
  L 106.13 82.40
  A 0.40 0.40 0.0 0 1 105.56 82.41
  L 104.84 81.68
  A 0.40 0.40 0.0 0 1 104.83 81.13
  L 110.92 74.62
  A 0.40 0.40 0.0 0 0 110.92 74.07
  Z"
/>
<path fill="#29b4ef" d="
  M 18.85 128.29
  L 29.99 128.26
  A 0.35 0.35 0.0 0 1 30.34 128.63
  L 30.26 129.93
  A 0.35 0.35 0.0 0 1 29.91 130.26
  L 18.85 130.25
  A 0.35 0.35 0.0 0 0 18.50 130.60
  L 18.50 141.61
  A 0.35 0.35 0.0 0 1 18.18 141.96
  L 17.09 142.04
  A 0.35 0.35 0.0 0 1 16.71 141.69
  L 16.67 116.83
  A 0.35 0.35 0.0 0 1 17.02 116.48
  L 33.91 116.46
  A 0.35 0.35 0.0 0 1 34.26 116.81
  L 34.26 117.95
  A 0.35 0.35 0.0 0 1 33.91 118.30
  L 18.85 118.27
  A 0.35 0.35 0.0 0 0 18.50 118.62
  L 18.50 127.94
  A 0.35 0.35 0.0 0 0 18.85 128.29
  Z"
/>
<path fill="#29b4ef" d="
  M 45.26 141.81
  C 42.32 142.72 39.98 140.03 39.94 137.24
  Q 39.81 127.82 39.84 117.44
  Q 39.85 116.54 40.75 116.51
  L 41.03 116.50
  Q 41.75 116.48 41.75 117.20
  Q 41.74 127.36 41.77 137.00
  Q 41.78 140.26 44.91 140.30
  Q 45.59 140.30 45.74 140.97
  A 0.71 0.71 0.0 0 1 45.26 141.81
  Z"
/>
<path fill="#29b4ef" d="
  M 135.99 127.18
  Q 136.05 131.59 136.00 135.53
  Q 135.95 140.26 141.13 140.12
  A 0.73 0.73 0.0 0 1 141.77 140.47
  Q 141.99 140.81 141.95 141.17
  Q 141.84 142.10 140.90 142.10
  C 135.65 142.11 133.84 138.67 133.96 133.88
  Q 134.05 130.21 134.00 126.91
  Q 133.99 126.38 133.46 126.41
  L 131.55 126.52
  Q 130.87 126.55 130.68 125.90
  L 130.56 125.52
  A 0.48 0.48 0.0 0 1 130.90 124.93
  Q 132.21 124.61 133.49 124.76
  A 0.51 0.50 -86.1 0 0 134.06 124.25
  L 133.99 119.26
  Q 133.98 118.51 134.74 118.52
  L 135.15 118.52
  A 0.87 0.87 0.0 0 1 136.01 119.40
  L 135.97 124.10
  Q 135.97 124.73 136.60 124.73
  L 140.74 124.75
  Q 141.23 124.75 141.20 125.24
  L 141.17 125.69
  Q 141.13 126.51 140.31 126.50
  L 136.68 126.48
  Q 135.98 126.47 135.99 127.18
  Z"
/>
<path fill="#29b4ef" d="
  M 118.67 126.00
  Q 118.79 126.86 119.39 126.23
  Q 122.20 123.22 126.07 124.01
  Q 126.89 124.17 126.77 125.00
  L 126.73 125.33
  A 0.59 0.58 -80.6 0 1 126.05 125.83
  C 122.09 125.14 118.53 127.45 118.68 131.68
  Q 118.86 136.74 118.59 141.62
  A 0.46 0.46 0.0 0 1 118.07 142.05
  L 117.69 142.00
  A 1.03 1.02 -86.9 0 1 116.78 140.98
  L 116.76 125.05
  Q 116.76 124.30 117.47 124.10
  L 117.88 123.99
  A 0.44 0.44 0.0 0 1 118.44 124.35
  L 118.67 126.00
  Z"
/>
<path fill="#29b4ef" d="
  M 51.04 134.27
  Q 51.18 136.19 52.26 137.52
  Q 56.65 142.93 63.38 138.55
  A 0.44 0.43 47.5 0 1 63.89 138.58
  L 64.21 138.84
  A 0.58 0.58 0.0 0 1 64.21 139.74
  Q 60.13 143.07 55.84 141.96
  C 45.07 139.16 47.84 121.43 59.92 124.30
  A 7.23 7.22 -2.6 0 1 65.08 129.00
  L 65.52 130.28
  Q 66.61 133.49 63.22 133.53
  L 51.59 133.68
  Q 51.00 133.68 51.04 134.27
  Z
  M 51.36 131.94
  L 63.74 132.00
  A 0.13 0.13 0.0 0 0 63.87 131.87
  L 63.87 131.78
  A 6.25 6.04 0.3 0 0 57.66 125.71
  L 57.52 125.71
  A 6.25 6.04 0.3 0 0 51.23 131.72
  L 51.23 131.81
  A 0.13 0.13 0.0 0 0 51.36 131.94
  Z"
/>
<path fill="#29b4ef" d="
  M 85.40 139.69
  C 80.56 144.97 71.16 141.77 70.30 134.59
  C 68.74 121.59 87.45 120.06 88.36 132.09
  Q 88.65 135.96 88.46 139.93
  C 88.04 148.87 77.62 151.81 71.87 145.59
  Q 71.35 145.03 71.61 144.30
  L 71.71 144.04
  A 0.41 0.41 0.0 0 1 72.38 143.88
  Q 75.02 146.36 77.05 146.80
  Q 84.92 148.53 86.63 140.32
  Q 87.16 137.77 85.40 139.69
  Z
  M 78.1359 140.4402
  A 7.46 7.33 98.9 0 0 86.5317 134.2040
  A 7.46 7.33 98.9 0 0 80.4441 125.6998
  A 7.46 7.33 98.9 0 0 72.0483 131.9360
  A 7.46 7.33 98.9 0 0 78.1359 140.4402
  Z"
/>
<path fill="#29b4ef" d="
  M 96.07 134.30
  C 96.94 140.65 103.41 141.93 108.40 138.58
  Q 108.73 138.35 108.98 138.66
  L 109.25 138.99
  A 0.68 0.67 51.9 0 1 109.14 139.96
  C 102.05 145.26 93.40 140.64 94.25 131.77
  C 95.28 120.90 110.68 121.49 110.84 132.40
  A 1.23 1.23 0.0 0 1 109.61 133.65
  L 96.66 133.62
  Q 95.97 133.62 96.07 134.30
  Z
  M 96.41 131.95
  L 108.75 131.99
  A 0.13 0.13 0.0 0 0 108.88 131.86
  L 108.88 131.76
  A 6.20 5.99 0.2 0 0 102.70 125.75
  L 102.50 125.75
  A 6.20 5.99 0.2 0 0 96.28 131.72
  L 96.28 131.82
  A 0.13 0.13 0.0 0 0 96.41 131.95
  Z"
/>
<path fill="#29b4ef" d="
  M 148.77 134.61
  Q 150.35 140.84 156.44 140.40
  Q 158.36 140.26 161.10 138.59
  A 0.46 0.45 -36.0 0 1 161.68 138.68
  L 161.93 138.97
  A 0.70 0.70 0.0 0 1 161.81 139.99
  Q 156.38 143.93 151.22 141.02
  C 143.27 136.53 146.44 123.04 156.36 124.04
  Q 160.98 124.51 162.71 128.82
  L 163.21 130.05
  Q 164.71 133.80 160.67 133.65
  Q 155.55 133.45 149.47 133.67
  Q 148.54 133.70 148.77 134.61
  Z
  M 149.05 131.96
  L 161.49 132.00
  A 0.12 0.12 0.0 0 0 161.61 131.88
  L 161.61 131.80
  A 6.26 6.08 0.2 0 0 155.37 125.70
  L 155.21 125.70
  A 6.26 6.08 0.2 0 0 148.93 131.76
  L 148.93 131.84
  A 0.12 0.12 0.0 0 0 149.05 131.96
  Z"
/>
<path fill="#29b4ef" d="
  M 173.01 139.45
  Q 176.99 141.84 182.03 138.64
  A 0.51 0.50 -36.1 0 1 182.68 138.74
  L 182.94 139.03
  A 0.63 0.63 0.0 0 1 182.87 139.94
  Q 177.98 144.03 172.66 141.17
  C 165.50 137.33 166.46 126.10 174.64 124.15
  Q 179.29 123.04 183.05 127.08
  Q 183.63 127.70 183.04 128.32
  L 182.81 128.57
  A 0.48 0.47 45.0 0 1 182.12 128.56
  Q 179.87 126.13 177.09 125.79
  C 169.42 124.87 167.16 135.95 173.01 139.45
  Z"
/>
<path fill="#f3f3f3" d="
  M 51.36 131.94
  A 0.13 0.13 0.0 0 1 51.23 131.81
  L 51.23 131.72
  A 6.25 6.04 0.3 0 1 57.52 125.71
  L 57.66 125.71
  A 6.25 6.04 0.3 0 1 63.87 131.78
  L 63.87 131.87
  A 0.13 0.13 0.0 0 1 63.74 132.00
  L 51.36 131.94
  Z"
/>
<path fill="#f3f3f3" d="
  M 149.05 131.96
  A 0.12 0.12 0.0 0 1 148.93 131.84
  L 148.93 131.76
  A 6.26 6.08 0.2 0 1 155.21 125.70
  L 155.37 125.70
  A 6.26 6.08 0.2 0 1 161.61 131.80
  L 161.61 131.88
  A 0.12 0.12 0.0 0 1 161.49 132.00
  L 149.05 131.96
  Z"
/>
<ellipse fill="#f3f3f3" cx="0.00" cy="0.00" transform="translate(79.29,133.07) rotate(98.9)" rx="7.46" ry="7.33"/>
<path fill="#f3f3f3" d="
  M 96.41 131.95
  A 0.13 0.13 0.0 0 1 96.28 131.82
  L 96.28 131.72
  A 6.20 5.99 0.2 0 1 102.50 125.75
  L 102.70 125.75
  A 6.20 5.99 0.2 0 1 108.88 131.76
  L 108.88 131.86
  A 0.13 0.13 0.0 0 1 108.75 131.99
  L 96.41 131.95
  Z"
/>
</svg>
