<?xml version="1.0" encoding="UTF-8" standalone="no"?>
<!DOCTYPE svg PUBLIC "-//W3C//DTD SVG 1.1//EN" "http://www.w3.org/Graphics/SVG/1.1/DTD/svg11.dtd">
<svg xmlns="http://www.w3.org/2000/svg" version="1.1" viewBox="0.00 0.00 1000.00 332.00">
<g stroke-width="2.00" fill="none" stroke-linecap="butt">
<path stroke="#94daf7" vector-effect="non-scaling-stroke" d="
  M 497.87 160.65
  C 507.85 159.90 517.72 156.96 520.06 146.00
  Q 522.93 132.57 520.99 116.99
  C 519.12 102.00 509.96 98.28 496.17 97.67
  Q 483.87 97.11 475.13 98.60
  Q 467.55 99.89 463.21 105.28
  Q 460.19 109.05 459.11 116.49
  Q 457.34 128.70 459.07 141.55
  C 460.48 152.11 465.71 158.26 476.35 159.91
  Q 486.59 161.50 497.87 160.65"
/>
<path stroke="#94daf7" vector-effect="non-scaling-stroke" d="
  M 379.27 189.46
  A 0.54 0.54 0.0 0 1 379.81 188.93
  L 400.13 189.12
  A 0.54 0.54 0.0 0 0 400.67 188.61
  L 400.78 186.76
  A 0.54 0.54 0.0 0 0 400.24 186.19
  L 377.07 186.27
  A 0.54 0.54 0.0 0 0 376.53 186.81
  L 376.76 220.78
  A 0.54 0.54 0.0 0 0 377.22 221.31
  L 378.51 221.49
  A 0.54 0.54 0.0 0 0 379.13 220.96
  L 379.26 205.68
  A 0.54 0.54 0.0 0 1 379.80 205.14
  L 394.67 205.27
  A 0.54 0.54 0.0 0 0 395.22 204.75
  L 395.31 202.99
  A 0.54 0.54 0.0 0 0 394.77 202.42
  L 379.77 202.50
  A 0.54 0.54 0.0 0 1 379.23 201.96
  L 379.27 189.46"
/>
<path stroke="#94daf7" vector-effect="non-scaling-stroke" d="
  M 415.21 218.74
  C 411.53 218.92 410.77 215.69 410.76 212.71
  Q 410.73 199.77 410.95 187.51
  A 1.13 1.10 -66.5 0 0 410.65 186.72
  Q 410.09 186.13 409.48 186.25
  Q 408.01 186.53 408.00 188.03
  Q 407.96 201.06 408.30 214.97
  C 408.38 218.08 412.24 223.09 415.68 220.88
  Q 416.50 220.35 416.20 219.42
  A 1.00 1.00 0.0 0 0 415.21 218.74"
/>
<path stroke="#94daf7" vector-effect="non-scaling-stroke" d="
  M 539.13 196.72
  L 539.18 190.69
  Q 539.20 189.17 537.68 189.05
  L 537.27 189.01
  Q 535.96 188.91 535.99 190.23
  L 536.16 196.85
  A 0.74 0.73 -87.3 0 1 535.34 197.60
  Q 533.76 197.43 532.28 197.75
  A 0.98 0.97 -10.7 0 0 531.52 198.85
  Q 531.60 199.38 531.87 199.65
  A 3.07 1.99 -23.6 0 0 534.57 200.09
  Q 536.16 199.67 536.14 200.76
  Q 536.06 204.45 536.00 208.41
  C 535.88 215.45 537.30 220.85 545.15 221.48
  A 2.02 2.00 15.3 0 0 547.10 220.38
  Q 547.34 219.90 547.13 219.29
  A 1.02 1.01 82.4 0 0 546.25 218.61
  C 542.85 218.35 539.12 217.42 539.17 213.12
  Q 539.24 206.66 539.20 200.78
  A 0.74 0.74 0.0 0 1 539.97 200.04
  L 544.33 200.22
  Q 545.47 200.27 546.01 199.25
  Q 546.24 198.82 546.20 198.34
  A 0.86 0.85 87.4 0 0 545.35 197.56
  L 539.97 197.56
  A 0.84 0.83 0.3 0 1 539.13 196.72"
/>
<path stroke="#94daf7" vector-effect="non-scaling-stroke" d="
  M 484.70 210.63
  A 0.59 0.59 0.0 0 1 485.27 209.91
  L 502.77 209.97
  A 2.14 2.13 -1.1 0 0 504.92 207.74
  C 504.59 200.28 498.31 194.99 490.90 196.64
  C 480.12 199.03 478.91 214.37 487.87 219.83
  Q 494.47 223.85 502.58 218.42
  Q 503.44 217.84 502.75 217.07
  L 502.44 216.72
  Q 501.78 215.98 500.97 216.53
  Q 497.80 218.68 494.24 218.78
  Q 486.65 218.99 484.70 210.63"
/>
<path stroke="#94daf7" vector-effect="non-scaling-stroke" d="
  M 515.52 199.43
  L 515.23 197.35
  A 0.90 0.90 0.0 0 0 514.09 196.61
  L 513.69 196.73
  A 1.39 1.38 -8.1 0 0 512.69 198.06
  L 512.76 219.85
  A 1.44 1.43 12.1 0 0 513.62 221.16
  Q 514.05 221.34 514.49 221.34
  A 0.88 0.88 0.0 0 0 515.37 220.50
  Q 515.72 214.48 515.49 208.47
  C 515.25 202.34 518.76 198.32 525.19 199.29
  A 1.08 1.08 0.0 0 0 526.35 198.61
  Q 526.49 198.25 526.49 197.85
  Q 526.48 196.80 525.46 196.55
  C 522.14 195.73 518.68 196.97 516.31 199.67
  Q 515.66 200.42 515.52 199.43"
/>
<path stroke="#94daf7" vector-effect="non-scaling-stroke" d="
  M 424.26 209.84
  Q 432.13 209.94 440.62 209.55
  C 442.14 209.48 443.77 208.87 443.55 206.99
  C 442.74 199.82 437.33 195.70 430.28 196.58
  C 420.79 197.78 418.04 210.50 423.59 217.14
  C 428.35 222.82 436.30 223.00 441.54 217.81
  Q 441.84 217.51 441.68 217.11
  Q 441.32 216.28 440.48 216.31
  Q 439.93 216.32 439.43 216.65
  Q 431.14 222.09 425.18 214.96
  Q 423.51 212.96 423.52 210.57
  A 0.73 0.73 0.0 0 1 424.26 209.84"
/>
<path stroke="#94daf7" vector-effect="non-scaling-stroke" d="
  M 471.85 218.05
  C 471.28 222.62 468.54 227.28 463.59 227.88
  C 459.18 228.41 455.81 226.60 452.70 223.76
  A 0.93 0.93 0.0 0 0 451.33 223.89
  Q 451.08 224.22 451.13 224.62
  Q 451.27 225.82 452.23 226.69
  C 459.17 232.93 469.66 231.67 473.43 222.85
  C 475.12 218.91 474.47 212.94 474.41 208.50
  C 474.22 193.57 452.59 192.17 449.72 205.91
  Q 448.26 212.90 452.56 217.55
  C 457.62 223.03 465.51 223.02 470.73 217.52
  Q 472.09 216.09 471.85 218.05"
/>
<path stroke="#94daf7" vector-effect="non-scaling-stroke" d="
  M 556.50 210.20
  A 0.49 0.47 7.4 0 1 556.95 209.87
  Q 565.21 209.69 572.74 210.00
  C 574.96 210.09 577.40 208.77 576.65 206.22
  C 575.21 201.27 572.09 196.89 566.55 196.49
  C 552.23 195.47 548.54 215.28 561.06 220.59
  Q 567.63 223.37 574.09 218.47
  A 1.08 1.07 69.5 0 0 574.51 217.54
  Q 574.46 216.87 574.01 216.49
  Q 573.46 216.03 572.86 216.41
  C 566.48 220.42 559.64 219.91 556.57 211.97
  Q 556.23 211.08 556.50 210.20"
/>
<path stroke="#94daf7" vector-effect="non-scaling-stroke" d="
  M 596.32 218.67
  C 586.25 220.72 581.20 207.97 588.22 201.36
  C 592.26 197.56 598.09 199.06 601.50 203.00
  A 0.84 0.84 0.0 0 0 602.53 203.18
  Q 602.95 202.94 603.21 202.53
  A 1.34 1.33 -48.8 0 0 603.11 200.95
  Q 597.96 194.82 590.60 196.92
  C 585.94 198.26 582.18 203.22 582.09 208.07
  Q 581.91 218.01 591.38 221.13
  Q 597.40 223.11 602.80 218.30
  A 0.89 0.88 68.4 0 0 603.10 217.59
  Q 603.03 216.58 601.85 216.38
  A 1.12 1.11 31.4 0 0 601.00 216.58
  Q 598.79 218.16 596.32 218.67"
/>
<path stroke="#94daf7" vector-effect="non-scaling-stroke" d="
  M 483.43 138.87
  A 0.53 0.53 0.0 0 0 483.37 138.22
  L 475.19 129.49
  A 0.53 0.53 0.0 0 1 475.20 128.76
  L 483.58 120.01
  A 0.53 0.53 0.0 0 0 483.58 119.27
  L 482.44 118.10
  A 0.53 0.53 0.0 0 0 481.68 118.10
  L 471.67 128.67
  A 0.53 0.53 0.0 0 0 471.67 129.40
  L 481.89 140.05
  A 0.53 0.53 0.0 0 0 482.72 139.97
  L 483.43 138.87"
/>
<path stroke="#94daf7" vector-effect="non-scaling-stroke" d="
  M 493.6642 119.7819
  A 1.31 1.31 0.0 0 0 492.6990 118.2006
  L 492.6212 118.1818
  A 1.31 1.31 0.0 0 0 491.0399 119.1471
  L 486.4358 138.1781
  A 1.31 1.31 0.0 0 0 487.4010 139.7594
  L 487.4788 139.7782
  A 1.31 1.31 0.0 0 0 489.0601 138.8129
  L 493.6642 119.7819"
/>
<path stroke="#94daf7" vector-effect="non-scaling-stroke" d="
  M 496.48 119.30
  A 0.58 0.58 0.0 0 0 496.50 120.09
  L 504.78 128.68
  A 0.58 0.58 0.0 0 1 504.78 129.48
  L 496.45 138.37
  A 0.58 0.58 0.0 0 0 496.44 139.16
  L 497.43 140.24
  A 0.58 0.58 0.0 0 0 498.28 140.25
  L 508.43 129.52
  A 0.58 0.58 0.0 0 0 508.43 128.72
  L 498.39 118.12
  A 0.58 0.58 0.0 0 0 497.54 118.13
  L 496.48 119.30"
/>
<path stroke="#94daf7" vector-effect="non-scaling-stroke" d="
  M 485.15 207.44
  L 501.87 207.50
  A 0.15 0.15 0.0 0 0 502.02 207.35
  L 502.02 207.28
  A 8.36 8.04 0.2 0 0 493.68 199.21
  L 493.38 199.21
  A 8.36 8.04 0.2 0 0 485.00 207.22
  L 485.00 207.29
  A 0.15 0.15 0.0 0 0 485.15 207.44"
/>
<path stroke="#94daf7" vector-effect="non-scaling-stroke" d="
  M 423.86 207.48
  L 440.64 207.50
  A 0.15 0.15 0.0 0 0 440.79 207.35
  L 440.79 207.27
  A 8.38 8.09 0.1 0 0 432.43 199.17
  L 432.11 199.17
  A 8.38 8.09 0.1 0 0 423.71 207.25
  L 423.71 207.33
  A 0.15 0.15 0.0 0 0 423.86 207.48"
/>
<path stroke="#94daf7" vector-effect="non-scaling-stroke" d="
  M 471.80 209.00
  A 9.95 9.95 0.0 0 0 461.85 199.05
  A 9.95 9.95 0.0 0 0 451.90 209.00
  A 9.95 9.95 0.0 0 0 461.85 218.95
  A 9.95 9.95 0.0 0 0 471.80 209.00"
/>
<path stroke="#94daf7" vector-effect="non-scaling-stroke" d="
  M 556.77 207.63
  L 573.51 207.61
  A 0.17 0.17 0.0 0 0 573.68 207.44
  L 573.68 207.34
  A 8.40 8.19 -0.1 0 0 565.26 199.16
  L 564.98 199.16
  A 8.40 8.19 -0.1 0 0 556.60 207.36
  L 556.60 207.46
  A 0.17 0.17 0.0 0 0 556.77 207.63"
/>
</g>
<path fill="#ffffff" d="
  M 0.00 0.00
  L 1000.00 0.00
  L 1000.00 332.00
  L 0.00 332.00
  L 0.00 0.00
  Z
  M 497.87 160.65
  C 507.85 159.90 517.72 156.96 520.06 146.00
  Q 522.93 132.57 520.99 116.99
  C 519.12 102.00 509.96 98.28 496.17 97.67
  Q 483.87 97.11 475.13 98.60
  Q 467.55 99.89 463.21 105.28
  Q 460.19 109.05 459.11 116.49
  Q 457.34 128.70 459.07 141.55
  C 460.48 152.11 465.71 158.26 476.35 159.91
  Q 486.59 161.50 497.87 160.65
  Z
  M 379.27 189.46
  A 0.54 0.54 0.0 0 1 379.81 188.93
  L 400.13 189.12
  A 0.54 0.54 0.0 0 0 400.67 188.61
  L 400.78 186.76
  A 0.54 0.54 0.0 0 0 400.24 186.19
  L 377.07 186.27
  A 0.54 0.54 0.0 0 0 376.53 186.81
  L 376.76 220.78
  A 0.54 0.54 0.0 0 0 377.22 221.31
  L 378.51 221.49
  A 0.54 0.54 0.0 0 0 379.13 220.96
  L 379.26 205.68
  A 0.54 0.54 0.0 0 1 379.80 205.14
  L 394.67 205.27
  A 0.54 0.54 0.0 0 0 395.22 204.75
  L 395.31 202.99
  A 0.54 0.54 0.0 0 0 394.77 202.42
  L 379.77 202.50
  A 0.54 0.54 0.0 0 1 379.23 201.96
  L 379.27 189.46
  Z
  M 415.21 218.74
  C 411.53 218.92 410.77 215.69 410.76 212.71
  Q 410.73 199.77 410.95 187.51
  A 1.13 1.10 -66.5 0 0 410.65 186.72
  Q 410.09 186.13 409.48 186.25
  Q 408.01 186.53 408.00 188.03
  Q 407.96 201.06 408.30 214.97
  C 408.38 218.08 412.24 223.09 415.68 220.88
  Q 416.50 220.35 416.20 219.42
  A 1.00 1.00 0.0 0 0 415.21 218.74
  Z
  M 539.13 196.72
  L 539.18 190.69
  Q 539.20 189.17 537.68 189.05
  L 537.27 189.01
  Q 535.96 188.91 535.99 190.23
  L 536.16 196.85
  A 0.74 0.73 -87.3 0 1 535.34 197.60
  Q 533.76 197.43 532.28 197.75
  A 0.98 0.97 -10.7 0 0 531.52 198.85
  Q 531.60 199.38 531.87 199.65
  A 3.07 1.99 -23.6 0 0 534.57 200.09
  Q 536.16 199.67 536.14 200.76
  Q 536.06 204.45 536.00 208.41
  C 535.88 215.45 537.30 220.85 545.15 221.48
  A 2.02 2.00 15.3 0 0 547.10 220.38
  Q 547.34 219.90 547.13 219.29
  A 1.02 1.01 82.4 0 0 546.25 218.61
  C 542.85 218.35 539.12 217.42 539.17 213.12
  Q 539.24 206.66 539.20 200.78
  A 0.74 0.74 0.0 0 1 539.97 200.04
  L 544.33 200.22
  Q 545.47 200.27 546.01 199.25
  Q 546.24 198.82 546.20 198.34
  A 0.86 0.85 87.4 0 0 545.35 197.56
  L 539.97 197.56
  A 0.84 0.83 0.3 0 1 539.13 196.72
  Z
  M 484.70 210.63
  A 0.59 0.59 0.0 0 1 485.27 209.91
  L 502.77 209.97
  A 2.14 2.13 -1.1 0 0 504.92 207.74
  C 504.59 200.28 498.31 194.99 490.90 196.64
  C 480.12 199.03 478.91 214.37 487.87 219.83
  Q 494.47 223.85 502.58 218.42
  Q 503.44 217.84 502.75 217.07
  L 502.44 216.72
  Q 501.78 215.98 500.97 216.53
  Q 497.80 218.68 494.24 218.78
  Q 486.65 218.99 484.70 210.63
  Z
  M 515.52 199.43
  L 515.23 197.35
  A 0.90 0.90 0.0 0 0 514.09 196.61
  L 513.69 196.73
  A 1.39 1.38 -8.1 0 0 512.69 198.06
  L 512.76 219.85
  A 1.44 1.43 12.1 0 0 513.62 221.16
  Q 514.05 221.34 514.49 221.34
  A 0.88 0.88 0.0 0 0 515.37 220.50
  Q 515.72 214.48 515.49 208.47
  C 515.25 202.34 518.76 198.32 525.19 199.29
  A 1.08 1.08 0.0 0 0 526.35 198.61
  Q 526.49 198.25 526.49 197.85
  Q 526.48 196.80 525.46 196.55
  C 522.14 195.73 518.68 196.97 516.31 199.67
  Q 515.66 200.42 515.52 199.43
  Z
  M 424.26 209.84
  Q 432.13 209.94 440.62 209.55
  C 442.14 209.48 443.77 208.87 443.55 206.99
  C 442.74 199.82 437.33 195.70 430.28 196.58
  C 420.79 197.78 418.04 210.50 423.59 217.14
  C 428.35 222.82 436.30 223.00 441.54 217.81
  Q 441.84 217.51 441.68 217.11
  Q 441.32 216.28 440.48 216.31
  Q 439.93 216.32 439.43 216.65
  Q 431.14 222.09 425.18 214.96
  Q 423.51 212.96 423.52 210.57
  A 0.73 0.73 0.0 0 1 424.26 209.84
  Z
  M 471.85 218.05
  C 471.28 222.62 468.54 227.28 463.59 227.88
  C 459.18 228.41 455.81 226.60 452.70 223.76
  A 0.93 0.93 0.0 0 0 451.33 223.89
  Q 451.08 224.22 451.13 224.62
  Q 451.27 225.82 452.23 226.69
  C 459.17 232.93 469.66 231.67 473.43 222.85
  C 475.12 218.91 474.47 212.94 474.41 208.50
  C 474.22 193.57 452.59 192.17 449.72 205.91
  Q 448.26 212.90 452.56 217.55
  C 457.62 223.03 465.51 223.02 470.73 217.52
  Q 472.09 216.09 471.85 218.05
  Z
  M 556.50 210.20
  A 0.49 0.47 7.4 0 1 556.95 209.87
  Q 565.21 209.69 572.74 210.00
  C 574.96 210.09 577.40 208.77 576.65 206.22
  C 575.21 201.27 572.09 196.89 566.55 196.49
  C 552.23 195.47 548.54 215.28 561.06 220.59
  Q 567.63 223.37 574.09 218.47
  A 1.08 1.07 69.5 0 0 574.51 217.54
  Q 574.46 216.87 574.01 216.49
  Q 573.46 216.03 572.86 216.41
  C 566.48 220.42 559.64 219.91 556.57 211.97
  Q 556.23 211.08 556.50 210.20
  Z
  M 596.32 218.67
  C 586.25 220.72 581.20 207.97 588.22 201.36
  C 592.26 197.56 598.09 199.06 601.50 203.00
  A 0.84 0.84 0.0 0 0 602.53 203.18
  Q 602.95 202.94 603.21 202.53
  A 1.34 1.33 -48.8 0 0 603.11 200.95
  Q 597.96 194.82 590.60 196.92
  C 585.94 198.26 582.18 203.22 582.09 208.07
  Q 581.91 218.01 591.38 221.13
  Q 597.40 223.11 602.80 218.30
  A 0.89 0.88 68.4 0 0 603.10 217.59
  Q 603.03 216.58 601.85 216.38
  A 1.12 1.11 31.4 0 0 601.00 216.58
  Q 598.79 218.16 596.32 218.67
  Z"
/>
<path fill="#29b4ef" d="
  M 520.06 146.00
  C 517.72 156.96 507.85 159.90 497.87 160.65
  Q 486.59 161.50 476.35 159.91
  C 465.71 158.26 460.48 152.11 459.07 141.55
  Q 457.34 128.70 459.11 116.49
  Q 460.19 109.05 463.21 105.28
  Q 467.55 99.89 475.13 98.60
  Q 483.87 97.11 496.17 97.67
  C 509.96 98.28 519.12 102.00 520.99 116.99
  Q 522.93 132.57 520.06 146.00
  Z
  M 483.43 138.87
  A 0.53 0.53 0.0 0 0 483.37 138.22
  L 475.19 129.49
  A 0.53 0.53 0.0 0 1 475.20 128.76
  L 483.58 120.01
  A 0.53 0.53 0.0 0 0 483.58 119.27
  L 482.44 118.10
  A 0.53 0.53 0.0 0 0 481.68 118.10
  L 471.67 128.67
  A 0.53 0.53 0.0 0 0 471.67 129.40
  L 481.89 140.05
  A 0.53 0.53 0.0 0 0 482.72 139.97
  L 483.43 138.87
  Z
  M 493.6642 119.7819
  A 1.31 1.31 0.0 0 0 492.6990 118.2006
  L 492.6212 118.1818
  A 1.31 1.31 0.0 0 0 491.0399 119.1471
  L 486.4358 138.1781
  A 1.31 1.31 0.0 0 0 487.4010 139.7594
  L 487.4788 139.7782
  A 1.31 1.31 0.0 0 0 489.0601 138.8129
  L 493.6642 119.7819
  Z
  M 496.48 119.30
  A 0.58 0.58 0.0 0 0 496.50 120.09
  L 504.78 128.68
  A 0.58 0.58 0.0 0 1 504.78 129.48
  L 496.45 138.37
  A 0.58 0.58 0.0 0 0 496.44 139.16
  L 497.43 140.24
  A 0.58 0.58 0.0 0 0 498.28 140.25
  L 508.43 129.52
  A 0.58 0.58 0.0 0 0 508.43 128.72
  L 498.39 118.12
  A 0.58 0.58 0.0 0 0 497.54 118.13
  L 496.48 119.30
  Z"
/>
<path fill="#ffffff" d="
  M 483.43 138.87
  L 482.72 139.97
  A 0.53 0.53 0.0 0 1 481.89 140.05
  L 471.67 129.40
  A 0.53 0.53 0.0 0 1 471.67 128.67
  L 481.68 118.10
  A 0.53 0.53 0.0 0 1 482.44 118.10
  L 483.58 119.27
  A 0.53 0.53 0.0 0 1 483.58 120.01
  L 475.20 128.76
  A 0.53 0.53 0.0 0 0 475.19 129.49
  L 483.37 138.22
  A 0.53 0.53 0.0 0 1 483.43 138.87
  Z"
/>
<rect fill="#ffffff" x="-1.35" y="-11.10" transform="translate(490.05,128.98) rotate(13.6)" width="2.70" height="22.20" rx="1.31"/>
<path fill="#ffffff" d="
  M 496.48 119.30
  L 497.54 118.13
  A 0.58 0.58 0.0 0 1 498.39 118.12
  L 508.43 128.72
  A 0.58 0.58 0.0 0 1 508.43 129.52
  L 498.28 140.25
  A 0.58 0.58 0.0 0 1 497.43 140.24
  L 496.44 139.16
  A 0.58 0.58 0.0 0 1 496.45 138.37
  L 504.78 129.48
  A 0.58 0.58 0.0 0 0 504.78 128.68
  L 496.50 120.09
  A 0.58 0.58 0.0 0 1 496.48 119.30
  Z"
/>
<path fill="#29b4ef" d="
  M 379.27 189.46
  L 379.23 201.96
  A 0.54 0.54 0.0 0 0 379.77 202.50
  L 394.77 202.42
  A 0.54 0.54 0.0 0 1 395.31 202.99
  L 395.22 204.75
  A 0.54 0.54 0.0 0 1 394.67 205.27
  L 379.80 205.14
  A 0.54 0.54 0.0 0 0 379.26 205.68
  L 379.13 220.96
  A 0.54 0.54 0.0 0 1 378.51 221.49
  L 377.22 221.31
  A 0.54 0.54 0.0 0 1 376.76 220.78
  L 376.53 186.81
  A 0.54 0.54 0.0 0 1 377.07 186.27
  L 400.24 186.19
  A 0.54 0.54 0.0 0 1 400.78 186.76
  L 400.67 188.61
  A 0.54 0.54 0.0 0 1 400.13 189.12
  L 379.81 188.93
  A 0.54 0.54 0.0 0 0 379.27 189.46
  Z"
/>
<path fill="#29b4ef" d="
  M 410.76 212.71
  C 410.77 215.69 411.53 218.92 415.21 218.74
  A 1.00 1.00 0.0 0 1 416.20 219.42
  Q 416.50 220.35 415.68 220.88
  C 412.24 223.09 408.38 218.08 408.30 214.97
  Q 407.96 201.06 408.00 188.03
  Q 408.01 186.53 409.48 186.25
  Q 410.09 186.13 410.65 186.72
  A 1.13 1.10 -66.5 0 1 410.95 187.51
  Q 410.73 199.77 410.76 212.71
  Z"
/>
<path fill="#29b4ef" d="
  M 539.97 197.56
  L 545.35 197.56
  A 0.86 0.85 87.4 0 1 546.20 198.34
  Q 546.24 198.82 546.01 199.25
  Q 545.47 200.27 544.33 200.22
  L 539.97 200.04
  A 0.74 0.74 0.0 0 0 539.20 200.78
  Q 539.24 206.66 539.17 213.12
  C 539.12 217.42 542.85 218.35 546.25 218.61
  A 1.02 1.01 82.4 0 1 547.13 219.29
  Q 547.34 219.90 547.10 220.38
  A 2.02 2.00 15.3 0 1 545.15 221.48
  C 537.30 220.85 535.88 215.45 536.00 208.41
  Q 536.06 204.45 536.14 200.76
  Q 536.16 199.67 534.57 200.09
  A 3.07 1.99 -23.6 0 1 531.87 199.65
  Q 531.60 199.38 531.52 198.85
  A 0.98 0.97 -10.7 0 1 532.28 197.75
  Q 533.76 197.43 535.34 197.60
  A 0.74 0.73 -87.3 0 0 536.16 196.85
  L 535.99 190.23
  Q 535.96 188.91 537.27 189.01
  L 537.68 189.05
  Q 539.20 189.17 539.18 190.69
  L 539.13 196.72
  A 0.84 0.83 0.3 0 0 539.97 197.56
  Z"
/>
<path fill="#29b4ef" d="
  M 484.70 210.63
  Q 486.65 218.99 494.24 218.78
  Q 497.80 218.68 500.97 216.53
  Q 501.78 215.98 502.44 216.72
  L 502.75 217.07
  Q 503.44 217.84 502.58 218.42
  Q 494.47 223.85 487.87 219.83
  C 478.91 214.37 480.12 199.03 490.90 196.64
  C 498.31 194.99 504.59 200.28 504.92 207.74
  A 2.14 2.13 -1.1 0 1 502.77 209.97
  L 485.27 209.91
  A 0.59 0.59 0.0 0 0 484.70 210.63
  Z
  M 485.15 207.44
  L 501.87 207.50
  A 0.15 0.15 0.0 0 0 502.02 207.35
  L 502.02 207.28
  A 8.36 8.04 0.2 0 0 493.68 199.21
  L 493.38 199.21
  A 8.36 8.04 0.2 0 0 485.00 207.22
  L 485.00 207.29
  A 0.15 0.15 0.0 0 0 485.15 207.44
  Z"
/>
<path fill="#29b4ef" d="
  M 516.31 199.67
  C 518.68 196.97 522.14 195.73 525.46 196.55
  Q 526.48 196.80 526.49 197.85
  Q 526.49 198.25 526.35 198.61
  A 1.08 1.08 0.0 0 1 525.19 199.29
  C 518.76 198.32 515.25 202.34 515.49 208.47
  Q 515.72 214.48 515.37 220.50
  A 0.88 0.88 0.0 0 1 514.49 221.34
  Q 514.05 221.34 513.62 221.16
  A 1.44 1.43 12.1 0 1 512.76 219.85
  L 512.69 198.06
  A 1.39 1.38 -8.1 0 1 513.69 196.73
  L 514.09 196.61
  A 0.90 0.90 0.0 0 1 515.23 197.35
  L 515.52 199.43
  Q 515.66 200.42 516.31 199.67
  Z"
/>
<path fill="#29b4ef" d="
  M 424.26 209.84
  A 0.73 0.73 0.0 0 0 423.52 210.57
  Q 423.51 212.96 425.18 214.96
  Q 431.14 222.09 439.43 216.65
  Q 439.93 216.32 440.48 216.31
  Q 441.32 216.28 441.68 217.11
  Q 441.84 217.51 441.54 217.81
  C 436.30 223.00 428.35 222.82 423.59 217.14
  C 418.04 210.50 420.79 197.78 430.28 196.58
  C 437.33 195.70 442.74 199.82 443.55 206.99
  C 443.77 208.87 442.14 209.48 440.62 209.55
  Q 432.13 209.94 424.26 209.84
  Z
  M 423.86 207.48
  L 440.64 207.50
  A 0.15 0.15 0.0 0 0 440.79 207.35
  L 440.79 207.27
  A 8.38 8.09 0.1 0 0 432.43 199.17
  L 432.11 199.17
  A 8.38 8.09 0.1 0 0 423.71 207.25
  L 423.71 207.33
  A 0.15 0.15 0.0 0 0 423.86 207.48
  Z"
/>
<path fill="#29b4ef" d="
  M 471.85 218.05
  Q 472.09 216.09 470.73 217.52
  C 465.51 223.02 457.62 223.03 452.56 217.55
  Q 448.26 212.90 449.72 205.91
  C 452.59 192.17 474.22 193.57 474.41 208.50
  C 474.47 212.94 475.12 218.91 473.43 222.85
  C 469.66 231.67 459.17 232.93 452.23 226.69
  Q 451.27 225.82 451.13 224.62
  Q 451.08 224.22 451.33 223.89
  A 0.93 0.93 0.0 0 1 452.70 223.76
  C 455.81 226.60 459.18 228.41 463.59 227.88
  C 468.54 227.28 471.28 222.62 471.85 218.05
  Z
  M 471.80 209.00
  A 9.95 9.95 0.0 0 0 461.85 199.05
  A 9.95 9.95 0.0 0 0 451.90 209.00
  A 9.95 9.95 0.0 0 0 461.85 218.95
  A 9.95 9.95 0.0 0 0 471.80 209.00
  Z"
/>
<path fill="#29b4ef" d="
  M 556.50 210.20
  Q 556.23 211.08 556.57 211.97
  C 559.64 219.91 566.48 220.42 572.86 216.41
  Q 573.46 216.03 574.01 216.49
  Q 574.46 216.87 574.51 217.54
  A 1.08 1.07 69.5 0 1 574.09 218.47
  Q 567.63 223.37 561.06 220.59
  C 548.54 215.28 552.23 195.47 566.55 196.49
  C 572.09 196.89 575.21 201.27 576.65 206.22
  C 577.40 208.77 574.96 210.09 572.74 210.00
  Q 565.21 209.69 556.95 209.87
  A 0.49 0.47 7.4 0 0 556.50 210.20
  Z
  M 556.77 207.63
  L 573.51 207.61
  A 0.17 0.17 0.0 0 0 573.68 207.44
  L 573.68 207.34
  A 8.40 8.19 -0.1 0 0 565.26 199.16
  L 564.98 199.16
  A 8.40 8.19 -0.1 0 0 556.60 207.36
  L 556.60 207.46
  A 0.17 0.17 0.0 0 0 556.77 207.63
  Z"
/>
<path fill="#29b4ef" d="
  M 588.22 201.36
  C 581.20 207.97 586.25 220.72 596.32 218.67
  Q 598.79 218.16 601.00 216.58
  A 1.12 1.11 31.4 0 1 601.85 216.38
  Q 603.03 216.58 603.10 217.59
  A 0.89 0.88 68.4 0 1 602.80 218.30
  Q 597.40 223.11 591.38 221.13
  Q 581.91 218.01 582.09 208.07
  C 582.18 203.22 585.94 198.26 590.60 196.92
  Q 597.96 194.82 603.11 200.95
  A 1.34 1.33 -48.8 0 1 603.21 202.53
  Q 602.95 202.94 602.53 203.18
  A 0.84 0.84 0.0 0 1 601.50 203.00
  C 598.09 199.06 592.26 197.56 588.22 201.36
  Z"
/>
<circle fill="#ffffff" cx="461.85" cy="209.00" r="9.95"/>
<path fill="#ffffff" d="
  M 423.86 207.48
  A 0.15 0.15 0.0 0 1 423.71 207.33
  L 423.71 207.25
  A 8.38 8.09 0.1 0 1 432.11 199.17
  L 432.43 199.17
  A 8.38 8.09 0.1 0 1 440.79 207.27
  L 440.79 207.35
  A 0.15 0.15 0.0 0 1 440.64 207.50
  L 423.86 207.48
  Z"
/>
<path fill="#ffffff" d="
  M 485.15 207.44
  A 0.15 0.15 0.0 0 1 485.00 207.29
  L 485.00 207.22
  A 8.36 8.04 0.2 0 1 493.38 199.21
  L 493.68 199.21
  A 8.36 8.04 0.2 0 1 502.02 207.28
  L 502.02 207.35
  A 0.15 0.15 0.0 0 1 501.87 207.50
  L 485.15 207.44
  Z"
/>
<path fill="#ffffff" d="
  M 556.77 207.63
  A 0.17 0.17 0.0 0 1 556.60 207.46
  L 556.60 207.36
  A 8.40 8.19 -0.1 0 1 564.98 199.16
  L 565.26 199.16
  A 8.40 8.19 -0.1 0 1 573.68 207.34
  L 573.68 207.44
  A 0.17 0.17 0.0 0 1 573.51 207.61
  L 556.77 207.63
  Z"
/>
</svg>
